<svg xmlns="http://www.w3.org/2000/svg" xmlns:xlink="http://www.w3.org/1999/xlink" viewBox="0 0 679.44 226.69"><defs><style>.cls-1{fill:url(#linear-gradient);filter:url(#luminosity-noclip);}.cls-2{fill:url(#linear-gradient-2);}.cls-3{fill:none;}.cls-4{isolation:isolate;}.cls-5{fill:#f9fe9c;}.cls-6{fill:#fff;}.cls-7{mix-blend-mode:screen;}.cls-8{fill:url(#radial-gradient);}.cls-9{clip-path:url(#clip-path);}.cls-10{mask:url(#mask);}.cls-11{clip-path:url(#clip-path-2);}.cls-12{mask:url(#mask-2);}.cls-13{filter:url(#luminosity-noclip-2);}</style><linearGradient id="linear-gradient" x1="-1930.41" y1="547.68" x2="-1929.48" y2="547.68" gradientTransform="matrix(0, -19.74, -19.74, 0, 11406.91, -38005.13)" gradientUnits="userSpaceOnUse"><stop offset="0" stop-color="#fff"/><stop offset="1"/></linearGradient><linearGradient id="linear-gradient-2" x1="-1915.4" y1="541.02" x2="-1915.15" y2="541.02" gradientTransform="matrix(0, -21.98, -19.74, 0, 11209.26, -42108.29)" xlink:href="#linear-gradient"/><radialGradient id="radial-gradient" cx="524.39" cy="7.94" r="237.69" gradientTransform="matrix(0.34, 0.94, -0.5, 0.18, 349.04, -486.29)" gradientUnits="userSpaceOnUse"><stop offset="0" stop-color="#f9fe9c"/><stop offset="0.1" stop-color="#f9fea3" stop-opacity="0.92"/><stop offset="0.29" stop-color="#fbfeb7" stop-opacity="0.73"/><stop offset="0.57" stop-color="#fdffd6" stop-opacity="0.41"/><stop offset="0.87" stop-color="#fffffb" stop-opacity="0.04"/><stop offset="1" stop-color="#fff" stop-opacity="0"/></radialGradient><clipPath id="clip-path"><rect class="cls-3" x="508.18" y="145.25" width="169.53" height="78.21"/></clipPath><filter id="luminosity-noclip" x="499.86" y="-10.23" width="186.18" height="234.62" filterUnits="userSpaceOnUse" color-interpolation-filters="sRGB"><feFlood flood-color="#fff" result="bg"/><feBlend in="SourceGraphic" in2="bg"/></filter><mask id="mask" x="499.86" y="-10.23" width="186.18" height="234.62" maskUnits="userSpaceOnUse"><rect class="cls-1" x="508.18" y="145.25" width="169.53" height="78.21"/></mask><clipPath id="clip-path-2"><rect class="cls-3" x="499.86" y="138.78" width="186.18" height="85.61"/></clipPath><filter id="luminosity-noclip-2" x="505.28" y="-2.82" width="43.05" height="33.27" filterUnits="userSpaceOnUse" color-interpolation-filters="sRGB"><feFlood flood-color="#fff" result="bg"/><feBlend in="SourceGraphic" in2="bg"/></filter><mask id="mask-2" x="505.28" y="-2.82" width="43.05" height="33.27" maskUnits="userSpaceOnUse"><g class="cls-13"><rect class="cls-2" x="507.79" y="1.8" width="38.03" height="24.02" transform="translate(15.32 140.67) rotate(-15.43)"/></g></mask></defs><title>CCC_FashionChecker_RGB_</title><g class="cls-4"><g id="Layer_1" data-name="Layer 1"><path class="cls-5" d="M429.32,168.13v-21.5h9.18q9.69,1,10.69,10.69-.88,9.93-10.69,10.81Zm37.6-10.81q-2.39-25.53-27.79-28.17H412.35v94.32h17V185.11h9.18q9.69.88,10.69,10.56v27.8h17V194.42A23.72,23.72,0,0,0,459,176.69h.13a28.57,28.57,0,0,0,7.79-19.37M399.77,129H344.94v94.45h54.83V206.61h-38.1V185.24h26.78V168.39H361.67V146.25h38.1Zm-92.94,47.29a11.63,11.63,0,0,0,1-1.51q2.78-5,5.66-10.06,9.81-17.73,19.87-35.47H313.24q-9.3,16.48-18.36,32.83-1.38,2.39-2.64,4.65v-37.6H275.39v94.19h16.85V185.87l18.36,32.94q1.26,2.26,2.64,4.53H333q-8.06-14.58-16-29.17-4.14-7.42-8.42-15c-.25-.42-.5-.88-.76-1.38s-.67-1-1-1.51m-45-20.25q-2.51-25.4-27.79-27.92-25.53,2.52-27.54,27.92v41q2.13,25.16,27.54,27.41,25-2.39,27.79-27.41V186.37h-17.1v10.69q-1.14,9.67-10.69,10.43-9.81-.62-10.81-10.43V156.69q.87-9.81,10.81-10.69,9.67.88,10.69,10.69v10.06h17.1ZM194.9,129H140.07v94.45H194.9V206.61H156.8V185.24h26.78V168.39H156.8V146.25h38.1Zm-85.38,39.11H88v-39H71.16v94.19H88V185.11h21.5v38.23h17V129.15h-17ZM58.59,156.06q-2.52-25.4-27.79-27.92Q5.25,130.66,3.26,156.06v41q2.13,25.16,27.54,27.41,25-2.39,27.79-27.41V186.37H41.48v10.69q-1.12,9.67-10.68,10.43Q21,206.88,20,197.06V156.69q.89-9.81,10.82-10.69,9.68.88,10.68,10.69v10.06H58.59Z"/><path class="cls-6" d="M466.57,2.22H448.22V55.64Q436.94,29,425.93,2.08H406.77v101.8H425V51.29q11,26.37,21.88,52.59h19.71ZM362.14,86.62q-10.61-.68-11.55-11.28V31.44q.95-10.47,11.55-11.55,10.59.95,11.68,11.55v43.9q-1.08,10.6-11.68,11.28M333.37,30.9V75.21q2.58,27,29.77,29.63,27.18-2.46,30-29.63V30.9q-2.71-27.31-30-30-27.47,2.72-29.77,30M299,104h18.35V2.08H299ZM263.7,44.22H240.45V2.08H222.24v101.8h18.21V62.57H263.7v41.31h18.35V2.08H263.7ZM190.61,52q-6-3.4-11.82-6.53a66.1,66.1,0,0,1-11.28-7.34Q160.29,27.5,171.58,21a14.4,14.4,0,0,1,10,.61,82.51,82.51,0,0,1,9.58,4.82q3.93,2.58,8,4.76,4.89-8.16,10.19-15.9l-8.7-4.62a61.79,61.79,0,0,0-17.53-8.57H183Q168.33-1.31,157.11,8T145.9,32.39v.14a8.47,8.47,0,0,0,.68,4.62q3,12.1,15.08,17.13a125.3,125.3,0,0,0,12,6.65,81.86,81.86,0,0,1,11,7.89q6.8,9.65-3.12,16.72a12.13,12.13,0,0,1-10.47.13,63.33,63.33,0,0,1-9.78-5.44q-4.37-2.45-8-4.89-4.89,8.3-8.84,15.77a99.85,99.85,0,0,0,21.89,11.82c0,.19,0,.27.13.27q14.82,4.62,27.18-4.21t12.64-24.46v-.14a16.64,16.64,0,0,0-.54-4.49Q202.85,57.41,190.61,52M92.53,54.14v-22q1-10.72,11.69-11.82Q115,21.38,116,32.12v22ZM72.29,31.31v73.8H90.78V72.49h23.51v32.62h18.49V31.31Q129.92,3.85,102.47,1,74.87,3.85,72.29,31.31M2.71,2.08V104H21.05V62.43H50V44.08H21.05V20.7H62.1V2.08Z"/><g class="cls-7"><path class="cls-8" d="M672.67,171.07,543.5,5.7c-2.64-2.85-12.77-3-20.37-.27-12.81,4.63-14.95,10.21-14.95,12.28V185.19Z"/></g><g class="cls-9"><g class="cls-10"><g class="cls-11"><path class="cls-5" d="M593,223.47c46.81,0,84.76-17.51,84.76-39.11s-38-39.11-84.76-39.11-84.77,17.51-84.77,39.11,37.95,39.11,84.77,39.11"/><path class="cls-5" d="M522.25,2.75c7.76,0,14.06-2.91,14.06-6.49s-6.3-6.49-14.06-6.49-14.07,2.91-14.07,6.49,6.3,6.49,14.07,6.49"/></g></g></g><g class="cls-12"><path class="cls-6" d="M530,25.39c10.12-2.79,16.9-10.24,15.13-16.64s-11.4-9.31-21.52-6.51-16.9,10.24-15.14,16.63,11.41,9.31,21.53,6.52"/></g></g></g></svg>