<svg xmlns="http://www.w3.org/2000/svg" xmlns:xlink="http://www.w3.org/1999/xlink" viewBox="0 0 789.78 336.27"><defs><style>.cls-1{fill:url(#linear-gradient);filter:url(#luminosity-noclip);}.cls-2{fill:url(#linear-gradient-2);}.cls-3{fill:none;}.cls-4{isolation:isolate;}.cls-5{fill:#0f181f;}.cls-6{fill:#f9fe9c;}.cls-7{fill:#fff;}.cls-8{mix-blend-mode:screen;}.cls-9{fill:url(#radial-gradient);}.cls-10{clip-path:url(#clip-path);}.cls-11{mask:url(#mask);}.cls-12{clip-path:url(#clip-path-2);}.cls-13{mask:url(#mask-2);}.cls-14{filter:url(#luminosity-noclip-2);}</style><linearGradient id="linear-gradient" x1="-1865.33" y1="127.55" x2="-1864.41" y2="127.55" gradientTransform="matrix(0, -19.74, -19.74, 0, 3166.5, -36664.17)" gradientUnits="userSpaceOnUse"><stop offset="0" stop-color="#fff"/><stop offset="1"/></linearGradient><linearGradient id="linear-gradient-2" x1="-1846.67" y1="127.26" x2="-1846.41" y2="127.26" gradientTransform="matrix(0, -21.98, -19.74, 0, 3094.78, -40541.53)" xlink:href="#linear-gradient"/><radialGradient id="radial-gradient" cx="579.57" cy="63.97" r="237.69" gradientTransform="matrix(0.34, 0.94, -0.5, 0.18, 413.3, -492.27)" gradientUnits="userSpaceOnUse"><stop offset="0" stop-color="#f9fe9c"/><stop offset="0.1" stop-color="#f9fea3" stop-opacity="0.92"/><stop offset="0.29" stop-color="#fbfeb7" stop-opacity="0.73"/><stop offset="0.57" stop-color="#fdffd6" stop-opacity="0.41"/><stop offset="0.87" stop-color="#fffffb" stop-opacity="0.04"/><stop offset="1" stop-color="#fff" stop-opacity="0"/></radialGradient><clipPath id="clip-path"><rect class="cls-3" x="563.36" y="201.29" width="169.53" height="78.21"/></clipPath><filter id="luminosity-noclip" x="555.03" y="45.8" width="186.18" height="234.62" filterUnits="userSpaceOnUse" color-interpolation-filters="sRGB"><feFlood flood-color="#fff" result="bg"/><feBlend in="SourceGraphic" in2="bg"/></filter><mask id="mask" x="555.03" y="45.8" width="186.18" height="234.62" maskUnits="userSpaceOnUse"><rect class="cls-1" x="563.36" y="201.29" width="169.53" height="78.21"/></mask><clipPath id="clip-path-2"><rect class="cls-3" x="555.03" y="194.81" width="186.18" height="85.61"/></clipPath><filter id="luminosity-noclip-2" x="560.45" y="53.21" width="43.05" height="33.27" filterUnits="userSpaceOnUse" color-interpolation-filters="sRGB"><feFlood flood-color="#fff" result="bg"/><feBlend in="SourceGraphic" in2="bg"/></filter><mask id="mask-2" x="560.45" y="53.21" width="43.05" height="33.27" maskUnits="userSpaceOnUse"><g class="cls-14"><rect class="cls-2" x="562.96" y="57.84" width="38.03" height="24.02" transform="translate(2.4 157.37) rotate(-15.43)"/></g></mask></defs><title>CCC_FashionChecker_RGB_</title><g class="cls-4"><g id="Layer_1" data-name="Layer 1"><rect class="cls-5" width="789.78" height="336.27"/><path class="cls-6" d="M484.5,224.17V202.66h9.18q9.68,1,10.69,10.69-.89,9.93-10.69,10.82Zm37.6-10.82q-2.4-25.53-27.79-28.17H467.52V279.5h17V241.14h9.18q9.68.88,10.69,10.57V279.5h17V250.45a23.68,23.68,0,0,0-7.16-17.73h.12a28.62,28.62,0,0,0,7.8-19.37m-67.16-28.29H400.11V279.5h54.83V262.65h-38.1V241.27h26.79V224.42H416.84V202.28h38.1ZM362,232.34a11.62,11.62,0,0,0,1-1.51q2.76-5,5.66-10.06,9.81-17.73,19.87-35.46H368.42q-9.32,16.47-18.36,32.82-1.4,2.38-2.65,4.65v-37.6H330.56v94.19h16.85V241.9q9.18,16.47,18.37,33c.83,1.51,1.71,3,2.64,4.52h19.74q-8.06-14.58-16-29.17-4.15-7.42-8.43-15-.37-.63-.75-1.38l-1-1.51m-45-20.25q-2.52-25.4-27.79-27.91-25.54,2.5-27.55,27.91v41q2.14,25.16,27.55,27.42,25-2.4,27.79-27.42V242.4H299.88v10.69q-1.12,9.69-10.68,10.44-9.81-.63-10.82-10.44V212.72q.89-9.81,10.82-10.69,9.68.89,10.68,10.69v10.06H317Zm-66.91-27H195.25V279.5h54.83V262.65H212V241.27h26.79V224.42H212V202.28h38.11Zm-85.39,39.11h-21.5v-39H126.34v94.19h16.85V241.14h21.5v38.23h17V185.18h-17Zm-50.93-12.08Q111.24,186.7,86,184.18q-25.53,2.5-27.54,27.91v41Q60.56,278.25,86,280.51q25-2.4,27.79-27.42V242.4H96.66v10.69Q95.52,262.78,86,263.53q-9.81-.63-10.81-10.44V212.72Q76,202.91,86,202q9.68.89,10.69,10.69v10.06h17.1Z"/><path class="cls-7" d="M521.74,58.25H503.39v53.42Q492.11,85,481.1,58.12H461.94v101.8h18.21v-52.6q11,26.37,21.88,52.6h19.71ZM417.31,142.66q-10.6-.69-11.55-11.28V87.48q.94-10.47,11.55-11.56,10.6,1,11.69,11.56v43.9q-1.1,10.59-11.69,11.28M388.55,86.93v44.31q2.58,27,29.76,29.63,27.18-2.44,30-29.63V86.93q-2.73-27.32-30-30-27.45,2.72-29.76,30m-34.34,73.12h18.35V58.12H354.21Zm-35.34-59.8H295.63V58.12H277.42v101.8h18.21V118.6h23.24v41.32h18.35V58.12H318.87ZM245.79,108q-6-3.39-11.83-6.53a66.28,66.28,0,0,1-11.28-7.34q-7.2-10.59,4.08-17.12a14.37,14.37,0,0,1,10,.61,83.37,83.37,0,0,1,9.58,4.83q3.94,2.58,8,4.75,4.89-8.15,10.19-15.9l-8.7-4.62a61.62,61.62,0,0,0-17.53-8.56h-.13q-14.69-3.4-25.9,5.91t-11.21,24.4v.13a8.66,8.66,0,0,0,.68,4.62q3,12.1,15.09,17.13a124.12,124.12,0,0,0,12,6.66,82.15,82.15,0,0,1,11,7.88q6.8,9.66-3.13,16.72a12.11,12.11,0,0,1-10.46.14,64.28,64.28,0,0,1-9.79-5.44q-4.35-2.45-8-4.89-4.89,8.28-8.83,15.76A99.81,99.81,0,0,0,221.46,159c0,.18,0,.27.13.27q14.82,4.62,27.19-4.22t12.64-24.46v-.14a16.48,16.48,0,0,0-.55-4.48Q258,113.43,245.79,108m-98.08,2.17v-22q.94-10.73,11.68-11.82,10.74,1.1,11.83,11.82v22ZM127.47,87.34v73.8H146V128.52h23.51v32.62H188V87.34Q185.1,59.89,157.64,57,130,59.88,127.47,87.34M57.88,58.12V160.05H76.23V118.46h29V100.11H76.23V76.74h41V58.12Z"/><g class="cls-8"><path class="cls-9" d="M727.84,227.1,598.67,61.74c-2.63-2.86-12.77-3-20.36-.28-12.81,4.64-14.95,10.21-14.95,12.28V241.22Z"/></g><g class="cls-10"><g class="cls-11"><g class="cls-12"><path class="cls-6" d="M648.12,279.5c46.82,0,84.77-17.51,84.77-39.11s-37.95-39.1-84.77-39.1-84.76,17.51-84.76,39.1,37.95,39.11,84.76,39.11"/><path class="cls-6" d="M577.42,58.78c7.77,0,14.06-2.9,14.06-6.49s-6.29-6.49-14.06-6.49-14.06,2.91-14.06,6.49,6.29,6.49,14.06,6.49"/></g></g></g><g class="cls-13"><path class="cls-7" d="M585.17,81.42c10.13-2.79,16.9-10.24,15.14-16.63s-11.4-9.31-21.53-6.52-16.9,10.24-15.13,16.64,11.4,9.31,21.52,6.51"/></g></g></g></svg>