<svg xmlns="http://www.w3.org/2000/svg" xmlns:xlink="http://www.w3.org/1999/xlink" viewBox="0 0 466.88 887.63"><defs><style>.cls-1{fill:url(#linear-gradient);filter:url(#luminosity-noclip);}.cls-2{fill:url(#linear-gradient-2);}.cls-3{fill:none;}.cls-4{isolation:isolate;}.cls-5{fill:#f9fe9c;}.cls-6{fill:#fff;}.cls-7{mix-blend-mode:screen;}.cls-8{fill:url(#radial-gradient);}.cls-9{clip-path:url(#clip-path);}.cls-10{mask:url(#mask);}.cls-11{clip-path:url(#clip-path-2);}.cls-12{mask:url(#mask-2);}.cls-13{filter:url(#luminosity-noclip-2);}</style><linearGradient id="linear-gradient" x1="-42.21" y1="846.29" x2="-39.68" y2="846.29" gradientTransform="matrix(0, -19.74, -19.74, 0, 16942.94, -533.54)" gradientUnits="userSpaceOnUse"><stop offset="0" stop-color="#fff"/><stop offset="1"/></linearGradient><linearGradient id="linear-gradient-2" x1="10.58" y1="838.92" x2="11.28" y2="838.92" gradientTransform="matrix(0, -21.98, -19.74, 0, 16616.67, 205.92)" xlink:href="#linear-gradient"/><radialGradient id="radial-gradient" cx="45.64" cy="19.26" r="649.59" gradientTransform="matrix(0.34, 0.94, -0.5, 0.18, 39.64, -27.12)" gradientUnits="userSpaceOnUse"><stop offset="0" stop-color="#f9fe9c"/><stop offset="0.1" stop-color="#f9fea3" stop-opacity="0.92"/><stop offset="0.29" stop-color="#fbfeb7" stop-opacity="0.73"/><stop offset="0.57" stop-color="#fdffd6" stop-opacity="0.41"/><stop offset="0.87" stop-color="#fffffb" stop-opacity="0.04"/><stop offset="1" stop-color="#fff" stop-opacity="0"/></radialGradient><clipPath id="clip-path"><rect class="cls-3" x="1.34" y="394.54" width="463.31" height="213.75"/></clipPath><filter id="luminosity-noclip" x="-21.42" y="-30.39" width="508.82" height="641.2" filterUnits="userSpaceOnUse" color-interpolation-filters="sRGB"><feFlood flood-color="#fff" result="bg"/><feBlend in="SourceGraphic" in2="bg"/></filter><mask id="mask" x="-21.42" y="-30.39" width="508.82" height="641.2" maskUnits="userSpaceOnUse"><rect class="cls-1" x="1.34" y="394.54" width="463.31" height="213.75"/></mask><clipPath id="clip-path-2"><rect class="cls-3" x="-21.42" y="376.84" width="508.82" height="233.97"/></clipPath><filter id="luminosity-noclip-2" x="-6.61" y="-10.15" width="117.66" height="90.93" filterUnits="userSpaceOnUse" color-interpolation-filters="sRGB"><feFlood flood-color="#fff" result="bg"/><feBlend in="SourceGraphic" in2="bg"/></filter><mask id="mask-2" x="-6.61" y="-10.15" width="117.66" height="90.93" maskUnits="userSpaceOnUse"><g class="cls-13"><rect class="cls-2" x="0.25" y="2.5" width="103.94" height="65.64" transform="matrix(0.96, -0.27, 0.27, 0.96, -7.52, 15.17)"/></g></mask></defs><title>CCC_FashionChecker_RGB_</title><g class="cls-4"><g id="Layer_1" data-name="Layer 1"><path class="cls-5" d="M427.41,830.77V809.26h9.17q9.69,1,10.69,10.69-.87,9.94-10.69,10.82ZM465,820q-2.38-25.51-27.79-28.17H410.43V886.1h17V847.74h9.17q9.69.88,10.69,10.57V886.1h17V857.05a23.72,23.72,0,0,0-7.17-17.73h.13A28.55,28.55,0,0,0,465,820m-67.15-28.29H343V886.1h54.83V869.25h-38.1V847.87h26.78V831H359.75V808.89h38.1Zm-92.94,47.28a12.73,12.73,0,0,0,1-1.51q2.76-5,5.65-10.06,9.81-17.73,19.87-35.46H311.32Q302,808.38,293,824.73q-1.38,2.38-2.64,4.65v-37.6H273.47V886h16.85V848.5l18.36,33q1.26,2.26,2.64,4.53h19.75q-8.06-14.6-16-29.18-4.16-7.42-8.43-15c-.25-.41-.5-.88-.75-1.38l-1-1.51m-45-20.25q-2.5-25.4-27.79-27.91-25.53,2.51-27.54,27.91v41q2.15,25.15,27.54,27.42,25-2.39,27.79-27.42V849h-17.1v10.69q-1.12,9.69-10.69,10.44-9.81-.63-10.81-10.44V819.32q.87-9.81,10.81-10.69,9.69.89,10.69,10.69v10.06h17.1Zm-66.91-27H138.16V886.1H193V869.25h-38.1V847.87h26.79V831H154.88V808.89H193ZM107.6,830.77H86.1v-39H69.25V886H86.1V847.74h21.5V886h17v-94.2h-17ZM56.67,818.69q-2.52-25.4-27.79-27.91Q3.35,793.29,1.34,818.69v41q2.13,25.15,27.54,27.42,25-2.39,27.79-27.42V849H39.57v10.69q-1.14,9.69-10.69,10.44-9.81-.63-10.82-10.44V819.32q.89-9.81,10.82-10.69,9.68.89,10.69,10.69v10.06h17.1Z"/><path class="cls-6" d="M464.65,664.85H446.3v53.42Q435,691.63,424,664.72H404.85v101.8h18.21v-52.6q11,26.37,21.88,52.6h19.71ZM360.22,749.26q-10.61-.68-11.55-11.28v-43.9q.94-10.47,11.55-11.56,10.61,1,11.69,11.56V738q-1.1,10.59-11.69,11.28m-28.77-55.73v44.31q2.58,27,29.77,29.63,27.18-2.44,30-29.63V693.53q-2.73-27.31-30-30-27.47,2.71-29.77,30m-34.34,73.13h18.35V664.72H297.11Zm-35.33-59.81H238.53V664.72H220.32v101.8h18.21V725.2h23.25v41.32h18.35V664.72H261.78Zm-73.09,7.75q-6-3.39-11.82-6.53a66,66,0,0,1-11.28-7.33q-7.2-10.61,4.07-17.13a14.4,14.4,0,0,1,10,.61,84.19,84.19,0,0,1,9.58,4.83q3.94,2.58,8,4.76,4.89-8.16,10.19-15.91l-8.7-4.62a61.75,61.75,0,0,0-17.53-8.56h-.14q-14.67-3.4-25.89,5.91T144,695v.13a8.59,8.59,0,0,0,.68,4.63q3,12.09,15.08,17.12a122.19,122.19,0,0,0,12,6.66,82.32,82.32,0,0,1,11,7.88q6.79,9.66-3.12,16.72a12.13,12.13,0,0,1-10.47.14,63.33,63.33,0,0,1-9.78-5.44q-4.35-2.45-8-4.89-4.89,8.28-8.84,15.76a99.46,99.46,0,0,0,21.89,11.83c0,.18,0,.27.13.27q14.82,4.62,27.18-4.21t12.64-24.47V737a16.51,16.51,0,0,0-.54-4.48Q200.93,720,188.69,714.6m-98.08,2.17v-22q1-10.74,11.69-11.83Q113,684,114.13,694.76v22ZM70.38,693.94v73.8H88.86V735.12h23.51v32.62h18.49v-73.8q-2.87-27.45-30.31-30.31Q73,666.48,70.38,693.94M.79,664.72V766.66H19.13V725.07h29V706.72H19.13V683.34H60.18V664.72Z"/><g class="cls-7"><path class="cls-8" d="M450.87,465.08,97.85,13.16C90.65,5.35,63,4.89,42.19,12.4,7.18,25.07,1.34,40.31,1.34,46v457.7Z"/></g><g class="cls-9"><g class="cls-10"><g class="cls-11"><path class="cls-5" d="M233,608.28c127.94,0,231.66-47.84,231.66-106.87S360.93,394.54,233,394.54,1.34,442.38,1.34,501.41,105.05,608.28,233,608.28"/><path class="cls-5" d="M39.77,5.07C61,5.07,78.2-2.86,78.2-12.66S61-30.39,39.77-30.39,1.34-22.45,1.34-12.66,18.54,5.07,39.77,5.07"/></g></g></g><g class="cls-12"><path class="cls-6" d="M61,67c27.66-7.64,46.18-28,41.36-45.47S71.16-4,43.49,3.68-2.7,31.67,2.13,49.15,33.29,74.59,61,67"/></g></g></g></svg>