<svg xmlns="http://www.w3.org/2000/svg" xmlns:xlink="http://www.w3.org/1999/xlink" viewBox="0 0 578.8 999.78"><defs><style>.cls-1{fill:url(#linear-gradient);filter:url(#luminosity-noclip);}.cls-2{fill:url(#linear-gradient-2);}.cls-3{fill:none;}.cls-4{isolation:isolate;}.cls-5{fill:#0f181f;}.cls-6{fill:#f9fe9c;}.cls-7{fill:#fff;}.cls-8{mix-blend-mode:screen;}.cls-9{fill:url(#radial-gradient);}.cls-10{clip-path:url(#clip-path);}.cls-11{mask:url(#mask);}.cls-12{clip-path:url(#clip-path-2);}.cls-13{mask:url(#mask-2);}.cls-14{filter:url(#luminosity-noclip-2);}</style><linearGradient id="linear-gradient" x1="-944.27" y1="854.62" x2="-941.74" y2="854.62" gradientTransform="matrix(0, -19.74, -19.74, 0, 17164.57, -18287.7)" gradientUnits="userSpaceOnUse"><stop offset="0" stop-color="#fff"/><stop offset="1"/></linearGradient><linearGradient id="linear-gradient-2" x1="-903.09" y1="849.01" x2="-902.39" y2="849.01" gradientTransform="matrix(0, -21.98, -19.74, 0, 16872.88, -19819.13)" xlink:href="#linear-gradient"/><radialGradient id="radial-gradient" cx="102.73" cy="76.17" r="649.59" gradientTransform="matrix(0.34, 0.94, -0.5, 0.18, 105.6, -34.19)" gradientUnits="userSpaceOnUse"><stop offset="0" stop-color="#f9fe9c"/><stop offset="0.1" stop-color="#f9fea3" stop-opacity="0.92"/><stop offset="0.29" stop-color="#fbfeb7" stop-opacity="0.73"/><stop offset="0.57" stop-color="#fdffd6" stop-opacity="0.41"/><stop offset="0.87" stop-color="#fffffb" stop-opacity="0.04"/><stop offset="1" stop-color="#fff" stop-opacity="0"/></radialGradient><clipPath id="clip-path"><rect class="cls-3" x="58.43" y="451.45" width="463.31" height="213.75"/></clipPath><filter id="luminosity-noclip" x="35.67" y="26.52" width="508.82" height="641.2" filterUnits="userSpaceOnUse" color-interpolation-filters="sRGB"><feFlood flood-color="#fff" result="bg"/><feBlend in="SourceGraphic" in2="bg"/></filter><mask id="mask" x="35.67" y="26.52" width="508.82" height="641.2" maskUnits="userSpaceOnUse"><rect class="cls-1" x="58.43" y="451.45" width="463.31" height="213.75"/></mask><clipPath id="clip-path-2"><rect class="cls-3" x="35.67" y="433.75" width="508.82" height="233.97"/></clipPath><filter id="luminosity-noclip-2" x="50.49" y="46.76" width="117.66" height="90.93" filterUnits="userSpaceOnUse" color-interpolation-filters="sRGB"><feFlood flood-color="#fff" result="bg"/><feBlend in="SourceGraphic" in2="bg"/></filter><mask id="mask-2" x="50.49" y="46.76" width="117.66" height="90.93" maskUnits="userSpaceOnUse"><g class="cls-14"><rect class="cls-2" x="57.35" y="59.41" width="103.94" height="65.64" transform="matrix(0.96, -0.27, 0.27, 0.96, -20.6, 32.41)"/></g></mask></defs><title>CCC_FashionChecker_RGB_</title><g class="cls-4"><g id="Layer_1" data-name="Layer 1"><rect class="cls-5" width="578.8" height="999.78"/><path class="cls-6" d="M484.5,887.68V866.17h9.18q9.68,1,10.69,10.69-.89,9.95-10.69,10.82Zm37.6-10.82q-2.4-25.51-27.79-28.17H467.52V943h17V904.65h9.18q9.68.89,10.69,10.57V943h17V914a23.68,23.68,0,0,0-7.16-17.73h.12a28.6,28.6,0,0,0,7.8-19.37m-67.16-28.29H400.11V943h54.83V926.16h-38.1V904.78h26.79V887.93H416.84V865.8h38.1ZM362,895.85a11.62,11.62,0,0,0,1-1.51q2.76-5,5.66-10.06,9.81-17.73,19.87-35.46H368.42q-9.32,16.47-18.36,32.82-1.4,2.4-2.65,4.65v-37.6H330.56v94.2h16.85V905.41q9.18,16.47,18.37,33,1.25,2.26,2.64,4.53h19.74q-8.06-14.6-16-29.18-4.15-7.43-8.43-15c-.25-.41-.5-.88-.75-1.38l-1-1.51m-45-20.24q-2.52-25.41-27.79-27.92-25.54,2.5-27.55,27.92v41q2.14,25.15,27.55,27.42,25-2.38,27.79-27.42V905.91H299.88V916.6q-1.12,9.69-10.68,10.44-9.81-.63-10.82-10.44V876.23q.89-9.79,10.82-10.68,9.68.87,10.68,10.68v10.06H317Zm-66.91-27H195.25V943h54.83V926.16H212V904.78h26.79V887.93H212V865.8h38.11Zm-85.39,39.11h-21.5v-39H126.34v94.2h16.85V904.65h21.5v38.24h17v-94.2h-17Zm-50.93-12.07Q111.24,850.2,86,847.69q-25.53,2.5-27.54,27.92v41Q60.56,941.76,86,944q25-2.38,27.79-27.42V905.91H96.66V916.6Q95.52,926.29,86,927q-9.81-.63-10.81-10.44V876.23Q76,866.44,86,865.55q9.68.87,10.69,10.68v10.06h17.1Z"/><path class="cls-7" d="M521.74,721.76H503.39v53.42q-11.28-26.64-22.29-53.55H461.94v101.8h18.21v-52.6q11,26.37,21.88,52.6h19.71ZM417.31,806.17q-10.6-.67-11.55-11.28V751q.94-10.47,11.55-11.56,10.6,1,11.69,11.56v43.9q-1.1,10.61-11.69,11.28m-28.76-55.73v44.31q2.58,27,29.76,29.63,27.18-2.45,30-29.63V750.44q-2.73-27.32-30-30-27.45,2.72-29.76,30m-34.34,73.13h18.35V721.63H354.21Zm-35.34-59.81H295.63V721.63H277.42v101.8h18.21V782.11h23.24v41.32h18.35V721.63H318.87Zm-73.08,7.75q-6-3.39-11.83-6.52a67.52,67.52,0,0,1-11.28-7.34q-7.2-10.6,4.08-17.13a14.37,14.37,0,0,1,10,.61,83.37,83.37,0,0,1,9.58,4.83q3.94,2.58,8,4.76,4.89-8.16,10.19-15.91l-8.7-4.62a61.62,61.62,0,0,0-17.53-8.56h-.13q-14.69-3.39-25.9,5.91t-11.21,24.4v.13a8.68,8.68,0,0,0,.68,4.63q3,12.09,15.09,17.12a122,122,0,0,0,12,6.66,83.06,83.06,0,0,1,11,7.88q6.8,9.66-3.13,16.72a12.11,12.11,0,0,1-10.46.14,63.43,63.43,0,0,1-9.79-5.44q-4.35-2.44-8-4.89-4.89,8.29-8.83,15.76a99.39,99.39,0,0,0,21.88,11.83c0,.18,0,.27.13.27q14.82,4.62,27.19-4.21t12.64-24.47v-.14a16.48,16.48,0,0,0-.55-4.48q-2.85-12.51-15.08-17.94m-98.08,2.17v-22q.94-10.74,11.68-11.83,10.74,1.1,11.83,11.83v22Zm-20.24-22.83v73.8H146V792h23.51v32.62H188v-73.8q-2.85-27.45-30.31-30.31-27.6,2.87-30.17,30.31M57.88,721.63V823.57H76.23V782h29V763.63H76.23V740.25h41V721.63Z"/><g class="cls-8"><path class="cls-9" d="M508,522l-353-451.92c-7.2-7.81-34.9-8.27-55.66-.75-35,12.66-40.85,27.9-40.85,33.56v457.7Z"/></g><g class="cls-10"><g class="cls-11"><g class="cls-12"><path class="cls-6" d="M290.09,665.19c127.93,0,231.65-47.84,231.65-106.87S418,451.45,290.09,451.45,58.43,499.29,58.43,558.32,162.15,665.19,290.09,665.19"/><path class="cls-6" d="M96.86,62c21.22,0,38.43-7.93,38.43-17.73S118.08,26.52,96.86,26.52,58.43,34.46,58.43,44.25,75.64,62,96.86,62"/></g></g></g><g class="cls-13"><path class="cls-7" d="M118.05,123.87c27.66-7.64,46.18-28,41.36-45.47S128.25,53,100.58,60.59s-46.18,28-41.36,45.47,31.16,25.44,58.83,17.81"/></g></g></g></svg>