<?xml version="1.0" encoding="UTF-8"?>
<svg width="50px" height="46px" viewBox="0 0 50 46" version="1.1" xmlns="http://www.w3.org/2000/svg" xmlns:xlink="http://www.w3.org/1999/xlink">
    <!-- Generator: Sketch 63.1 (92452) - https://sketch.com -->
    <title>Fill 2 Copy</title>
    <desc>Created with Sketch.</desc>
    <g id="Desktop" stroke="none" stroke-width="1" fill="none" fill-rule="evenodd">
        <g id="OUR-DEMANDS" transform="translate(-345.000000, -1846.000000)" fill="#FB4922">
            <g id="Group-2" transform="translate(320.000000, 1828.000000)">
                <path d="M26.1204,63.3072388 C25.8024,63.3042 25.5094,63.1332 25.3504,62.8582 C25.1964,62.5912 25.1964,62.2622 25.3504,61.9952 L49.0194,18.4512 C49.1844,18.1702 49.4874,17.9982 49.8134,18.0011614 C50.1334,18.0112 50.4274,18.1792 50.5954,18.4512 L74.2584,61.9952 C74.4134,62.2622 74.4134,62.5912 74.2584,62.8582 C74.0934,63.1392 73.7904,63.3102 73.4644,63.3072388 L26.1204,63.3072388 Z M27.6354,61.5152 L71.9684,61.5152 L49.8014,20.7602 L27.6354,61.5152 Z M50.8904,53.9762 C50.9054,54.6492 50.3734,55.2062 49.7014,55.2222 C49.0284,55.2382 48.4704,54.7052 48.4554,54.0332 C48.4394,53.3602 48.9724,52.8032 49.6444,52.7871873 C49.6534,52.7871873 49.6634,52.7871873 49.6724,52.7871873 C50.3354,52.7842 50.8774,53.3142 50.8904,53.9762 L50.8904,53.9762 Z M49.6724,49.8292 C49.1794,49.8462 48.7664,49.4602 48.7494,48.9672 C48.7484,48.9552 48.7484,48.9422 48.7484,48.9302 L48.7484,33.4812 C48.7484,32.9882 49.1474,32.5882 49.6414,32.5872 C49.6514,32.5872 49.6614,32.5882 49.6724,32.5882 C50.1734,32.5812 50.5854,32.9802 50.5954,33.4812 L50.5954,48.9302 C50.5894,49.4332 50.1754,49.8352 49.6724,49.8292 Z" id="Fill-2-Copy"></path>
            </g>
        </g>
    </g>
</svg>