<?xml version="1.0" encoding="UTF-8"?>
<svg width="54px" height="54px" viewBox="0 0 54 54" version="1.1" xmlns="http://www.w3.org/2000/svg" xmlns:xlink="http://www.w3.org/1999/xlink">
    <!-- Generator: Sketch 63.1 (92452) - https://sketch.com -->
    <title>Group 8</title>
    <desc>Created with Sketch.</desc>
    <g id="Desktop" stroke="none" stroke-width="1" fill="none" fill-rule="evenodd">
        <g id="OUR-DEMANDS" transform="translate(-341.000000, -4826.000000)" fill="#FB4922">
            <g id="Group-9" transform="translate(320.000000, 4806.000000)">
                <g id="Group-8" transform="translate(21.000000, 20.340000)">
                    <path d="M52.4375,0.4948 L1.3125,0.4948 C0.7945,0.4948 0.3755,0.9138 0.3755,1.4328 L0.3755,38.3558 C0.3755,38.8728 0.7945,39.2938 1.3125,39.2938 L20.8065,39.2938 L34.7335,53.2198 C34.9125,53.3998 35.1535,53.4948 35.3965,53.4948 C35.5165,53.4948 35.6385,53.4708 35.7545,53.4228 C36.1045,53.2778 36.3325,52.9358 36.3325,52.5568 L36.3325,39.2938 L52.4375,39.2938 C52.9555,39.2938 53.3755,38.8728 53.3755,38.3558 L53.3755,1.4328 C53.3755,0.9138 52.9555,0.4948 52.4375,0.4948 L52.4375,0.4948 Z M51.5005,37.4178 L35.3965,37.4178 C34.8785,37.4178 34.4585,37.8378 34.4585,38.3558 L34.4585,50.2938 L21.8575,37.6928 C21.6815,37.5168 21.4435,37.4178 21.1945,37.4178 L2.2505,37.4178 L2.2505,2.3688 L51.5005,2.3688 L51.5005,37.4178 Z" id="Fill-2"></path>
                    <path d="M26.875,23.3283 C26.197,23.3513 25.628,22.8213 25.605,22.1433 C25.604,22.1263 25.604,22.1083 25.604,22.0913 L25.604,10.1413 C25.604,9.4633 26.154,8.9123 26.832,8.9123 C26.846,8.9123 26.861,8.9123 26.875,8.9133 C27.564,8.9033 28.132,9.4523 28.146,10.1413 L28.146,22.0913 C28.136,22.7843 27.568,23.3373 26.875,23.3283 Z" id="Fill-4"></path>
                    <path d="M26.875,30.5312 C27.717,30.5312 28.4,29.8442 28.4,29.0002 C28.4,28.1482 27.717,27.4612 26.875,27.4612 C26.033,27.4612 25.35,28.1482 25.35,29.0002 C25.35,29.8442 26.033,30.5312 26.875,30.5312" id="Fill-6"></path>
                </g>
            </g>
        </g>
    </g>
</svg>