<?xml version="1.0" encoding="UTF-8"?>
<svg width="80px" height="80px" viewBox="0 0 80 80" version="1.1" xmlns="http://www.w3.org/2000/svg" xmlns:xlink="http://www.w3.org/1999/xlink">
    <!-- Generator: Sketch 63.1 (92452) - https://sketch.com -->
    <title>Illustration/Star/Filled Copy</title>
    <desc>Created with Sketch.</desc>
    <g id="Illustration/Star/Filled-Copy" stroke="none" stroke-width="1" fill="none" fill-rule="evenodd">
        <path d="M77.0289391,28.7064221 L53.7104002,26.0967809 C53.2891373,26.0119813 52.8692423,25.7603178 52.6996429,25.3390549 L43.0188043,3.95723087 C41.8411832,1.34758971 38.1359851,1.34758971 36.958364,3.95723087 L27.2775254,25.3390549 C27.1092938,25.7603178 26.688031,26.0119813 26.2667681,26.0967809 L2.94822923,28.7064221 C0.0855568207,29.0428853 -1.00863235,32.578484 1.09631406,34.4303992 L18.4378446,50.2564778 C18.7743078,50.5943087 18.9425394,51.0142038 18.8591075,51.4354666 L14.1445199,74.4175423 C13.5550255,77.1954151 16.5859295,79.3837934 19.027339,77.9531411 L39.3997736,66.4203872 C39.8196687,66.167356 40.2409315,66.167356 40.6621944,66.4203872 L61.0346289,77.9531411 C63.5594704,79.3837934 66.5055748,77.1954151 65.9174481,74.4175423 L61.2028605,51.4354666 C61.1180608,51.0142038 61.2862924,50.509509 61.6241233,50.2564778 L78.9656539,34.4303992 C80.9858006,32.4950521 79.8916115,29.0428853 77.0289391,28.7064221" id="Shape" fill="#FFFFFF" fill-rule="nonzero"></path>
    </g>
</svg>