<?xml version="1.0" encoding="UTF-8"?>
<svg width="80px" height="80px" viewBox="0 0 80 80" version="1.1" xmlns="http://www.w3.org/2000/svg" xmlns:xlink="http://www.w3.org/1999/xlink">
    <!-- Generator: Sketch 63.1 (92452) - https://sketch.com -->
    <title>Illustration/Star/Outline Copy</title>
    <desc>Created with Sketch.</desc>
    <g id="Illustration/Star/Outline-Copy" stroke="none" stroke-width="1" fill="none" fill-rule="evenodd">
        <path d="M26.3061556,25.0074233 L4.50454509,27.447313 L4.29601247,27.4758451 C0.1668914,28.1214796 -1.45856469,33.2293877 1.54060804,36.081246 L17.917407,51.0270204 L13.5138091,72.492834 L13.4760943,72.6882732 C12.7655207,76.7783188 17.1546767,79.9527455 20.8192583,77.9840009 L40.0340646,67.1064077 L59.0995679,77.9005511 L59.2763045,77.9965441 C63.0566053,79.9620751 67.441195,76.681732 66.5518401,72.4810814 L62.1507222,51.0270204 L78.3994887,36.198791 L78.549692,36.0494064 C81.4757108,33.0268053 79.7309291,27.946587 75.4932909,27.4485177 L53.6781623,25.0074233 L44.6148857,4.98349715 C42.8196225,1.00514015 37.167713,1.00514015 35.371471,4.98566238 L26.3061556,25.0074233 Z M29.5736863,27.0281749 L29.6228749,26.9188581 L38.8429159,6.55478608 C39.2907879,5.56229302 40.6965476,5.56229302 41.1434408,6.55262085 L50.3644605,26.9188581 C50.7457007,27.8703942 51.6602407,28.5156433 52.6864459,28.7222171 L52.8504909,28.7478574 L75.0590922,31.2332825 L75.1817312,31.2531784 C76.1789046,31.4609197 76.5490228,32.6966254 75.7977502,33.4163618 L59.345901,48.4288703 L59.4574849,48.3400117 C58.5357898,49.0303501 58.1074567,50.2537329 58.3308228,51.363358 L62.8224011,73.2584008 C63.047869,74.3235258 61.9416747,75.1322999 60.9769893,74.5856796 L41.5735901,63.6014927 C40.6674351,63.0565163 39.5894502,63.0244589 38.628486,63.5271218 L19.0917802,74.5852997 C18.1695753,75.1254602 17.0251862,74.2977263 17.2430619,73.2710315 L21.7358758,51.3702474 C21.947962,50.2996135 21.5703918,49.2755307 20.8183482,48.5204301 L4.23664634,33.3848482 C3.43750239,32.6813475 3.85820662,31.3590784 4.93874385,31.2320778 L27.1368446,28.7478574 L27.3008895,28.7222171 C28.2645289,28.5282377 29.1304478,27.9482054 29.5736863,27.0281749 Z" id="Shape" fill="#FFFFFF" fill-rule="nonzero"></path>
    </g>
</svg>