<?xml version="1.0" encoding="UTF-8"?>
<svg width="80px" height="80px" viewBox="0 0 80 80" version="1.1" xmlns="http://www.w3.org/2000/svg" xmlns:xlink="http://www.w3.org/1999/xlink">
    <!-- Generator: Sketch 63.1 (92452) - https://sketch.com -->
    <title>Illustration/Emoji/Sad Copy</title>
    <desc>Created with Sketch.</desc>
    <g id="Illustration/Emoji/Sad-Copy" stroke="none" stroke-width="1" fill="none" fill-rule="evenodd">
        <path d="M40,-1.68603361e-14 C62.0913269,-1.68603361e-14 80,17.9086731 80,40 C79.9740335,62.0803936 62.0803936,79.9740335 40,80 C17.9086731,80 -1.80646458e-14,62.0913269 -1.80646458e-14,40 C-1.80646458e-14,17.9086731 17.9086731,-1.68603361e-14 40,-1.68603361e-14 Z M40,4.70608333 C20.5073714,4.70608333 4.70608333,20.5073714 4.70608333,40 C4.70608333,59.4926286 20.5073714,75.2939167 40,75.2939167 C59.4926286,75.2939167 75.2939167,59.4926286 75.2939167,40 C75.2734168,20.5162547 59.4837453,4.72658319 40,4.70608333 Z M55.9601356,57.6050847 C56.9404746,58.4430508 57.0550508,59.9169492 56.2170847,60.8972881 C55.3791186,61.8769492 53.9052203,61.9922034 52.9255593,61.1535593 C47.8828475,56.8301695 42.8408136,54.8416949 37.9194576,55.2240678 C33.5669153,55.6755932 29.5242034,57.6850847 26.5364068,60.8830508 C26.0991186,61.399661 25.4577627,61.699322 24.7811525,61.7047458 C23.491661,61.7027119 22.4482712,60.6559322 22.4503021,59.3664407 C22.451661,58.8132203 22.6482712,58.2789831 23.0069153,57.8572881 C26.7947119,53.7257627 31.9689492,51.1298305 37.5458983,50.5644068 C43.7370847,50.0694915 49.9377627,52.4322034 55.9601356,57.6050847 Z M24.7905085,27.5 C27.4359322,27.5 29.5810169,29.6444068 29.5810169,32.2905085 C29.5810169,34.9359322 27.4359322,37.0810169 24.7905085,37.0810169 C22.1450847,37.0810169 20,34.9359322 20,32.2905085 C20,29.6444068 22.1450847,27.5 24.7905085,27.5 Z M54.4383729,27.5 C57.0837966,27.5 59.2288814,29.6444068 59.2288814,32.2905085 C59.2288814,34.9359322 57.0837966,37.0810169 54.4383729,37.0810169 C51.7929492,37.0810169 49.6478644,34.9359322 49.6478644,32.2905085 C49.6478644,29.6444068 51.7929492,27.5 54.4383729,27.5 Z" id="Shape" fill="#FB4922" fill-rule="nonzero"></path>
    </g>
</svg>