<?xml version="1.0" encoding="UTF-8"?>
<svg width="80px" height="80px" viewBox="0 0 80 80" version="1.1" xmlns="http://www.w3.org/2000/svg" xmlns:xlink="http://www.w3.org/1999/xlink">
    <!-- Generator: Sketch 63.1 (92452) - https://sketch.com -->
    <title>Illustration/Emoji/Neutral Copy</title>
    <desc>Created with Sketch.</desc>
    <g id="Illustration/Emoji/Neutral-Copy" stroke="none" stroke-width="1" fill="none" fill-rule="evenodd">
        <path d="M40,-2.13162821e-14 C62.090943,-2.13162821e-14 80,17.909057 80,40 C79.9739098,62.081625 62.0797615,79.9739098 40,80 C17.909057,80 0,62.090943 0,40 C0,17.909057 17.909057,-2.13162821e-14 40,-2.13162821e-14 Z M40,4.70555348 C20.5068953,4.70555348 4.70555348,20.5087589 4.70555348,40 C4.70555348,59.4931047 20.5068953,75.2944465 40,75.2944465 C59.4931047,75.2944465 75.2944465,59.4931047 75.2944465,40 C75.2739471,20.5162132 59.4837868,4.72791651 40,4.70555348 Z M54.9457697,53.6474096 C56.2446888,53.6474096 57.2994782,54.7003354 57.2994782,55.9992546 C57.2994782,57.3000373 56.2446888,58.3529631 54.9457697,58.3529631 L25.0631755,58.3529631 C23.7642564,58.3529631 22.7113306,57.3000373 22.7113306,55.9992546 C22.7113306,54.7003354 23.7642564,53.6474096 25.0631755,53.6474096 L54.9457697,53.6474096 Z M25.0637346,27.6427507 C27.7305255,27.6427507 29.8922848,29.8045099 29.8922848,32.4713008 C29.8922848,35.1380917 27.7305255,37.2998509 25.0637346,37.2998509 C22.3969437,37.2998509 20.2351845,35.1380917 20.2351845,32.4713008 C20.2351845,29.8045099 22.3969437,27.6427507 25.0637346,27.6427507 Z M54.9457697,27.6427507 C57.6125606,27.6427507 59.7743198,29.8045099 59.7743198,32.4713008 C59.7743198,35.1380917 57.6125606,37.2998509 54.9457697,37.2998509 C52.2789788,37.2998509 50.1172195,35.1380917 50.1172195,32.4713008 C50.1172195,29.8045099 52.2789788,27.6427507 54.9457697,27.6427507 Z" id="Shape" fill="#F4991E" fill-rule="nonzero"></path>
    </g>
</svg>