<?xml version="1.0" encoding="UTF-8"?>
<svg width="80px" height="80px" viewBox="0 0 80 80" version="1.1" xmlns="http://www.w3.org/2000/svg" xmlns:xlink="http://www.w3.org/1999/xlink">
    <!-- Generator: Sketch 63.1 (92452) - https://sketch.com -->
    <title>Illustration/Emoji/Happy Copy</title>
    <desc>Created with Sketch.</desc>
    <g id="Illustration/Emoji/Happy-Copy" stroke="none" stroke-width="1" fill="none" fill-rule="evenodd">
        <path d="M40,-7.10542736e-15 C62.090943,-7.10542736e-15 80,17.909057 80,40 C79.9739098,62.081625 62.0797615,79.9739098 40,80 C17.909057,80 -7.10542736e-15,62.090943 -7.10542736e-15,40 C-7.10542736e-15,17.909057 17.909057,-7.10542736e-15 40,-7.10542736e-15 Z M40,4.70555348 C20.5068953,4.70555348 4.70555348,20.5087589 4.70555348,40 C4.70555348,59.4931047 20.5068953,75.2944465 40,75.2944465 C59.4931047,75.2944465 75.2944465,59.4931047 75.2944465,40 C75.2739471,20.5162132 59.4837868,4.72791651 40,4.70555348 Z M56.7005218,51.657473 C57.5465896,52.6433097 57.4291837,54.130451 56.4414834,54.9746552 C50.9271338,59.7174804 45.23388,62.1177786 39.5294447,62.1177786 C38.9890048,62.1177786 38.4541558,62.0954156 37.9193067,62.0525531 C32.2987328,61.4822959 27.0844204,58.8658218 23.2659337,54.7007082 C22.5149087,53.640328 22.7664927,52.1718226 23.8268729,51.4207976 C24.7512113,50.7666791 26.0109952,50.8635855 26.8235184,51.6518822 C27.2745061,52.1792769 38.1168468,64.4509877 53.3833395,51.3984346 C54.3710399,50.5523668 55.8563176,50.6697726 56.7005218,51.657473 Z M25.0637346,27.6427507 C27.7305255,27.6427507 29.8922848,29.8045099 29.8922848,32.4713008 C29.8922848,35.1380917 27.7305255,37.2998509 25.0637346,37.2998509 C22.3969437,37.2998509 20.2351845,35.1380917 20.2351845,32.4713008 C20.2351845,29.8045099 22.3969437,27.6427507 25.0637346,27.6427507 Z M54.9457697,27.6427507 C57.6125606,27.6427507 59.7743198,29.8045099 59.7743198,32.4713008 C59.7743198,35.1380917 57.6125606,37.2998509 54.9457697,37.2998509 C52.2789788,37.2998509 50.1172195,35.1380917 50.1172195,32.4713008 C50.1172195,29.8045099 52.2789788,27.6427507 54.9457697,27.6427507 Z" id="Shape" fill="#8CC36E" fill-rule="nonzero"></path>
    </g>
</svg>