<?xml version="1.0" encoding="UTF-8"?>
<svg width="274px" height="274px" viewBox="0 0 274 274" version="1.1" xmlns="http://www.w3.org/2000/svg" xmlns:xlink="http://www.w3.org/1999/xlink">
    <title>Group 11</title>
    <defs>
        <polygon id="path-1" points="0.0301126984 0 60.5208111 0 60.5208111 136.525578 0.0301126984 136.525578"></polygon>
        <polygon id="path-3" points="9.61403509e-05 0 274 0 274 273.999808 9.61403509e-05 273.999808"></polygon>
    </defs>
    <g id="Mobile" stroke="none" stroke-width="1" fill="none" fill-rule="evenodd">
        <g id="Mobile_Home-Copy" transform="translate(-51.000000, -743.000000)">
            <g id="Group-11" transform="translate(51.000000, 743.000000)">
                <g id="Group-3" transform="translate(77.000000, 0.000000)">
                    <mask id="mask-2" fill="white">
                        <use xlink:href="#path-1"></use>
                    </mask>
                    <g id="Clip-2"></g>
                    <path d="M60.5208111,-0.000191608392 L60.5208111,136.525578 L0.0301126984,13.8205217 C19.2092873,4.56775245 39.1814619,-0.000191608392 60.5208111,-0.000191608392" id="Fill-1" fill="#1D1D2F" mask="url(#mask-2)"></path>
                </g>
                <polygon id="Fill-4" fill="#008033" points="137 136.74662 137 161 77 38.2543387 77 14"></polygon>
                <g id="Group-10">
                    <g id="Group-7">
                        <mask id="mask-4" fill="white">
                            <use xlink:href="#path-3"></use>
                        </mask>
                        <g id="Clip-6"></g>
                        <path d="M137.004903,-0.000192280702 C212.668321,-0.000192280702 274.000096,61.3411972 274.000096,137.004615 C274.000096,212.668032 212.668321,273.999808 137.004903,273.999808 C61.3414856,273.999808 9.61403509e-05,212.668032 9.61403509e-05,137.004615 C9.61403509e-05,82.5295691 27.9855909,37.7531621 76.9421804,13.8690147 L137.004903,137.004615 L137.004903,-0.000192280702 Z" id="Fill-5" fill="#FB4922" mask="url(#mask-4)"></path>
                    </g>
                    <path d="M137,209.105263 C176.88767,209.105263 209.223516,176.822295 209.223516,137 C209.223516,97.1777053 176.88767,64.8947368 137,64.8947368 C97.1123298,64.8947368 64.7764842,97.1777053 64.7764842,137 C64.7764842,176.822295 97.1123298,209.105263 137,209.105263" id="Fill-8" fill="#FCC9FD"></path>
                </g>
            </g>
        </g>
    </g>
</svg>