<?xml version="1.0" encoding="UTF-8"?>
<svg width="310px" height="803px" viewBox="0 0 310 803" version="1.1" xmlns="http://www.w3.org/2000/svg" xmlns:xlink="http://www.w3.org/1999/xlink">
    <title>Spirals</title>
    <g id="Desktop" stroke="none" stroke-width="1" fill="none" fill-rule="evenodd">
        <g id="HOME" transform="translate(-1130.000000, -5935.000000)" stroke="#EC40D8">
            <g id="Spirals" transform="translate(1131.000000, 5937.000000)">
                <g id="Img">
                    <path d="M275.422125,132.92949 C426.197569,132.92949 548.425013,103.203548 548.425013,66.5392461 C548.425013,29.8740576 426.197569,0.148115299 275.422125,0.148115299 C124.646681,0.148115299 2.41923635,29.8740576 2.41923635,66.5392461 C2.41923635,103.203548 124.646681,132.92949 275.422125,132.92949 Z" id="Stroke-1" stroke-width="2.338"></path>
                    <line x1="1.03698029" y1="66.5388027" x2="1.03698029" y2="737.218182" id="Stroke-3" stroke-width="2.338"></line>
                    <line x1="548.424747" y1="66.5388027" x2="548.424747" y2="739.213747" id="Stroke-5" stroke-width="2.338"></line>
                    <path d="M275.422125,196.208958 C426.197569,196.208958 548.425013,166.483016 548.425013,129.818714 C548.425013,93.1535255 426.197569,63.4275831 275.422125,63.4275831 C124.646681,63.4275831 2.41923635,93.1535255 2.41923635,129.818714 C2.41923635,166.483016 124.646681,196.208958 275.422125,196.208958 Z" id="Stroke-7" stroke-width="2.338"></path>
                    <path d="M275.422125,263.981996 C426.197569,263.981996 548.425013,234.256053 548.425013,197.591752 C548.425013,160.926563 426.197569,131.200621 275.422125,131.200621 C124.646681,131.200621 2.41923635,160.926563 2.41923635,197.591752 C2.41923635,234.256053 124.646681,263.981996 275.422125,263.981996 Z" id="Stroke-9" stroke-width="2.338"></path>
                    <path d="M275.422125,331.755033 C426.197569,331.755033 548.425013,302.029091 548.425013,265.364789 C548.425013,228.699601 426.197569,198.973659 275.422125,198.973659 C124.646681,198.973659 2.41923635,228.699601 2.41923635,265.364789 C2.41923635,302.029091 124.646681,331.755033 275.422125,331.755033 Z" id="Stroke-11" stroke-width="2.338"></path>
                    <path d="M275.422125,393.18102 C426.197569,393.18102 548.425013,363.455078 548.425013,326.790776 C548.425013,290.125588 426.197569,260.399645 275.422125,260.399645 C124.646681,260.399645 2.41923635,290.125588 2.41923635,326.790776 C2.41923635,363.455078 124.646681,393.18102 275.422125,393.18102 Z" id="Stroke-13" stroke-width="2.338"></path>
                    <path d="M275.422125,473.405499 C426.197569,473.405499 548.425013,443.679557 548.425013,407.015255 C548.425013,370.350067 426.197569,340.624124 275.422125,340.624124 C124.646681,340.624124 2.41923635,370.350067 2.41923635,407.015255 C2.41923635,443.679557 124.646681,473.405499 275.422125,473.405499 Z" id="Stroke-15" stroke-width="2.338"></path>
                    <path d="M275.422125,528.727007 C426.197569,528.727007 548.425013,499.001064 548.425013,462.336763 C548.425013,425.671574 426.197569,395.945632 275.422125,395.945632 C124.646681,395.945632 2.41923635,425.671574 2.41923635,462.336763 C2.41923635,499.001064 124.646681,528.727007 275.422125,528.727007 Z" id="Stroke-17" stroke-width="2.338"></path>
                    <path d="M275.422125,596.496497 C426.197569,596.496497 548.425013,566.770554 548.425013,530.106253 C548.425013,493.441064 426.197569,463.715122 275.422125,463.715122 C124.646681,463.715122 2.41923635,493.441064 2.41923635,530.106253 C2.41923635,566.770554 124.646681,596.496497 275.422125,596.496497 Z" id="Stroke-19" stroke-width="2.338"></path>
                    <path d="M275.422125,664.269534 C426.197569,664.269534 548.425013,634.543592 548.425013,597.87929 C548.425013,561.214102 426.197569,531.48816 275.422125,531.48816 C124.646681,531.48816 2.41923635,561.214102 2.41923635,597.87929 C2.41923635,634.543592 124.646681,664.269534 275.422125,664.269534 Z" id="Stroke-21" stroke-width="2.338"></path>
                    <path d="M275.422125,732.042572 C426.197569,732.042572 548.425013,702.31663 548.425013,665.652328 C548.425013,628.98714 426.197569,599.261197 275.422125,599.261197 C124.646681,599.261197 2.41923635,628.98714 2.41923635,665.652328 C2.41923635,702.31663 124.646681,732.042572 275.422125,732.042572 Z" id="Stroke-23" stroke-width="2.338"></path>
                    <path d="M275.422125,799.815521 C426.197569,799.815521 548.425013,770.089579 548.425013,733.425277 C548.425013,696.760089 426.197569,667.034146 275.422125,667.034146 C124.646681,667.034146 2.41923635,696.760089 2.41923635,733.425277 C2.41923635,770.089579 124.646681,799.815521 275.422125,799.815521 Z" id="Stroke-25" stroke-width="2.338"></path>
                </g>
            </g>
        </g>
    </g>
</svg>