<svg id="fc5806bb-e13c-4d5d-ad67-92d99c4bf553" data-name="Layer 1" xmlns="http://www.w3.org/2000/svg" viewBox="0 0 175 99"><defs><style>.ee43a869-4eb3-4237-b86e-024ff90a4bf1{fill:#fff;}</style></defs><path d="M173.3,0H1.7A1.7,1.7,0,0,0,0,1.7V73.59a1.7,1.7,0,0,0,1.7,1.7H66.07V97.86a.41.41,0,0,0,.63.35l37-22.92H173.3a1.7,1.7,0,0,0,1.7-1.7V1.7A1.7,1.7,0,0,0,173.3,0Z"/><path class="ee43a869-4eb3-4237-b86e-024ff90a4bf1" d="M159.92,24.66a6.15,6.15,0,0,1-2.53,3.49c-1.65,1-3.71.93-5.63.76a9.73,9.73,0,0,1-3-.58,7.34,7.34,0,0,1-3.94-4.79,6.47,6.47,0,0,1-.3-2.35,6.78,6.78,0,0,1,.59-2.11,8.54,8.54,0,0,1,4.36-4.79,10.77,10.77,0,0,1,3.75-.56,6.85,6.85,0,0,1,3.09.41,7.08,7.08,0,0,1,2.12,1.74,8.45,8.45,0,0,1,.9,1.08C160.65,19,160.58,22.45,159.92,24.66Z"/><path class="ee43a869-4eb3-4237-b86e-024ff90a4bf1" d="M158.75,60.71H146.92V31.81a.32.32,0,0,1,.32-.32h11.19a.32.32,0,0,1,.32.32Z"/><path class="ee43a869-4eb3-4237-b86e-024ff90a4bf1" d="M144.71,13.71a.3.3,0,0,0-.29-.35H116.17a.3.3,0,0,0-.29.24L110,24a.3.3,0,0,0,.29.35h8.83a.29.29,0,0,1,.3.29V60.41a.31.31,0,0,0,.3.3H131a.3.3,0,0,0,.29-.3V24.66a.3.3,0,0,1,.3-.29h7a.31.31,0,0,0,.3-.25Z"/><path class="ee43a869-4eb3-4237-b86e-024ff90a4bf1" d="M110.35,13.71a.3.3,0,0,0-.3-.35H81.81a.29.29,0,0,0-.29.24L75.66,24a.3.3,0,0,0,.3.35h8.83a.29.29,0,0,1,.3.29V60.41a.3.3,0,0,0,.3.3H96.62a.3.3,0,0,0,.3-.3V24.66a.29.29,0,0,1,.3-.29h7a.3.3,0,0,0,.29-.25Z"/><path class="ee43a869-4eb3-4237-b86e-024ff90a4bf1" d="M59.76,41.32h3.86a.29.29,0,0,0,.3-.25l5.79-10.4a.3.3,0,0,0-.3-.35H59.76a.3.3,0,0,1-.3-.31V24.67a.29.29,0,0,1,.3-.3h9.79c.3,0,.37,0,.51-.25l5.77-10.4a.31.31,0,0,0-.3-.36H47.93a.3.3,0,0,0-.31.3V60.4a.31.31,0,0,0,.31.31H68.7a.32.32,0,0,0,.3-.25l5.77-10.4a.31.31,0,0,0-.3-.36H59.76a.3.3,0,0,1-.3-.31V41.63A.3.3,0,0,1,59.76,41.32Z"/><path class="ee43a869-4eb3-4237-b86e-024ff90a4bf1" d="M28.42,41.32h3.86a.29.29,0,0,0,.3-.25l5.79-10.4a.3.3,0,0,0-.3-.35H28.42a.3.3,0,0,1-.3-.31V24.67a.29.29,0,0,1,.3-.3h9.79c.3,0,.37,0,.5-.25l5.78-10.4a.31.31,0,0,0-.3-.36H16.59a.3.3,0,0,0-.31.3V60.4a.31.31,0,0,0,.31.31H37.36a.3.3,0,0,0,.29-.25l5.78-10.4a.31.31,0,0,0-.3-.36H28.42a.3.3,0,0,1-.3-.31V41.63A.3.3,0,0,1,28.42,41.32Z"/></svg>